<svg xmlns="http://www.w3.org/2000/svg" xmlns:xlink="http://www.w3.org/1999/xlink" version="1.1"
    id="Layer_1" x="0px" y="0px" viewBox="0 0 49.8 50.1"
    style="enable-background:new 0 0 49.8 50.1;" xml:space="preserve">
    <style type="text/css">
        .st0{fill:#2FA24C;}
        .st1{fill:#FFFFFF;}
        .st2{fill:#2A6DE1;}
    </style>
    <path d="M22.2,25c3.2,3.9,6.3,7.8,9.4,11.7c0.2,0.2,0.4,0.4,0.5,0.7c0.8,1.1,0.7,2.5-0.3,3.3c-1,0.8-2.4,0.7-3.3-0.4  c-1.3-1.5-2.5-3-3.7-4.5c-2.4-2.9-4.8-5.9-7.1-8.8c-1.2-1.5-1.2-2.4,0.1-3.9c3.6-4.4,7.3-8.8,10.9-13.1c0.6-0.8,1.4-1.2,2.5-1  c0.9,0.2,1.7,0.8,1.7,1.7c0,0.7-0.2,1.7-0.7,2.2c-3.1,3.9-6.3,7.7-9.5,11.5C22.6,24.6,22.4,24.8,22.2,25z"/>
    </svg>