<svg viewBox="0 0 24 24" fill="currentColor" width="1em" height="1em" aria-hidden="true">
    <path fill-rule="evenodd" clip-rule="evenodd"
        d="m9.85 11.01 5.688-5.69 3.141 3.142-5.689 5.689A6.313 6.313 0 0 1 8.526 16 .526.526 0 0 1 8 15.474c0-1.674.665-3.28 1.85-4.464zm7.102-7.103 1.256-1.256a2.221 2.221 0 0 1 3.142 3.14l-1.257 1.257-3.14-3.141zM5.088 3h9.942l-2 2H5.088a.746.746 0 0 0-.454.136.36.36 0 0 0-.145.238C4.254 6.71 4 8.879 4 12c0 3.121.254 5.289.489 6.626a.36.36 0 0 0 .145.238c.09.07.244.136.454.136h11.824c.21 0 .364-.066.454-.136a.36.36 0 0 0 .145-.238C17.746 17.29 18 15.121 18 12v-.03l1.965-1.965c.022.62.035 1.285.035 1.995 0 3.23-.263 5.514-.519 6.972C19.264 20.208 18.167 21 16.912 21H5.088c-1.255 0-2.352-.792-2.569-2.028C2.263 17.514 2 15.23 2 12c0-3.23.263-5.514.519-6.972C2.736 3.792 3.833 3 5.088 3z"></path>
</svg>